<svg width="248" height="30" viewBox="0 0 248 30" fill="none" xmlns="http://www.w3.org/2000/svg">
<rect width="5.02024" height="30" fill="black"/>
<rect width="5.02024" height="30" transform="matrix(-1 0 0 1 125.506 0)" fill="black"/>
<rect x="15.0607" width="5.02024" height="30" fill="black"/>
<rect width="5.02024" height="30" transform="matrix(-1 0 0 1 110.445 0)" fill="black"/>
<rect x="44.1781" width="5.02024" height="30" fill="black"/>
<rect x="127.514" width="5.02024" height="30" fill="black"/>
<rect width="5.02024" height="30" transform="matrix(-1 0 0 1 81.3279 0)" fill="black"/>
<rect x="30.1215" width="9.03644" height="30" fill="black"/>
<rect width="9.03644" height="30" transform="matrix(-1 0 0 1 95.3846 0)" fill="black"/>
<rect width="9.03644" height="30" transform="matrix(-1 0 0 1 180.729 0)" fill="black"/>
<rect width="9.03644" height="30" transform="matrix(-1 0 0 1 67.2712 0)" fill="black"/>
<rect x="7.02832" width="2.0081" height="30" fill="black"/>
<rect width="2.0081" height="30" transform="matrix(-1 0 0 1 118.478 0)" fill="black"/>
<rect x="22.0891" width="2.0081" height="30" fill="black"/>
<rect width="2.0081" height="30" transform="matrix(-1 0 0 1 103.417 0)" fill="black"/>
<rect x="51.2064" width="2.0081" height="30" fill="black"/>
<rect x="134.542" width="2.0081" height="30" fill="black"/>
<rect width="2.0081" height="30" transform="matrix(-1 0 0 1 74.2996 0)" fill="black"/>
<rect x="11.0446" width="2.0081" height="30" fill="black"/>
<rect width="2.0081" height="30" transform="matrix(-1 0 0 1 114.462 0)" fill="black"/>
<rect x="26.1052" width="2.0081" height="30" fill="black"/>
<rect width="2.0081" height="30" transform="matrix(-1 0 0 1 99.4008 0)" fill="black"/>
<rect x="41.166" width="1.00405" height="30" fill="black"/>
<rect width="1.00405" height="30" transform="matrix(-1 0 0 1 84.3401 0)" fill="black"/>
<rect x="55.2227" width="1.00405" height="30" fill="black"/>
<rect x="138.559" width="1.00405" height="30" fill="black"/>
<rect width="1.00405" height="30" transform="matrix(-1 0 0 1 70.2834 0)" fill="black"/>
<rect x="190.769" width="6.02429" height="30" fill="black"/>
<rect x="141.571" width="5.02024" height="30" fill="black"/>
<rect x="206.834" width="5.02024" height="30" fill="black"/>
<rect x="156.632" width="5.02024" height="30" fill="black"/>
<rect x="235.951" width="5.02024" height="30" fill="black"/>
<rect x="221.895" width="9.03644" height="30" fill="black"/>
<rect x="198.802" width="2.0081" height="30" fill="black"/>
<rect x="148.599" width="2.0081" height="30" fill="black"/>
<rect x="213.862" width="2.0081" height="30" fill="black"/>
<rect x="182.737" width="2.0081" height="30" fill="black"/>
<rect x="163.66" width="2.0081" height="30" fill="black"/>
<rect x="242.98" width="2.0081" height="30" fill="black"/>
<rect x="202.818" width="2.0081" height="30" fill="black"/>
<rect x="152.615" width="2.0081" height="30" fill="black"/>
<rect x="217.879" width="2.0081" height="30" fill="black"/>
<rect x="186.753" width="2.0081" height="30" fill="black"/>
<rect x="167.676" width="2.0081" height="30" fill="black"/>
<rect x="232.939" width="1.00405" height="30" fill="black"/>
<rect x="246.996" width="1.00405" height="30" fill="black"/>
</svg>
